<?xml version="1.0" encoding="UTF-8"?>
<!DOCTYPE svg PUBLIC "-//W3C//DTD SVG 1.1//EN" "http://www.w3.org/Graphics/SVG/1.1/DTD/svg11.dtd">
<!-- Creator: CorelDRAW 2020 (64 Bit) -->
<svg xmlns="http://www.w3.org/2000/svg" xml:space="preserve" width="120.849mm" height="125.373mm" version="1.1" style="shape-rendering:geometricPrecision; text-rendering:geometricPrecision; image-rendering:optimizeQuality; fill-rule:evenodd; clip-rule:evenodd"
viewBox="0 0 14509.22 15052.43"
 xmlns:xlink="http://www.w3.org/1999/xlink"
 xmlns:xodm="http://www.corel.com/coreldraw/odm/2003">
 <defs>
  <style type="text/css">
   <![CDATA[
    .fil5 {fill:#FEFEFE;fill-rule:nonzero}
    .fil6 {fill:#F7F7F6;fill-rule:nonzero}
    .fil2 {fill:#EFEFEF;fill-rule:nonzero}
    .fil4 {fill:#EAEAE9;fill-rule:nonzero}
    .fil7 {fill:#E8E7E5;fill-rule:nonzero}
    .fil0 {fill:#E5E6E5;fill-rule:nonzero}
    .fil10 {fill:#E5E4E3;fill-rule:nonzero}
    .fil9 {fill:#E2E3E3;fill-rule:nonzero}
    .fil3 {fill:#E0E1E0;fill-rule:nonzero}
    .fil8 {fill:#DCDDDC;fill-rule:nonzero}
    .fil11 {fill:#DCDDDB;fill-rule:nonzero}
    .fil1 {fill:#D9DAD9;fill-rule:nonzero}
    .fil13 {fill:#CBDDF1;fill-rule:nonzero}
    .fil20 {fill:#C2C4C4;fill-rule:nonzero}
    .fil17 {fill:#904A4B;fill-rule:nonzero}
    .fil18 {fill:#8E494A;fill-rule:nonzero}
    .fil19 {fill:#742C2D;fill-rule:nonzero}
    .fil21 {fill:#743D3E;fill-rule:nonzero}
    .fil24 {fill:#919697;fill-rule:nonzero}
    .fil22 {fill:#8D9193;fill-rule:nonzero}
    .fil27 {fill:#7AA8D9;fill-rule:nonzero}
    .fil14 {fill:#6C9CD2;fill-rule:nonzero}
    .fil12 {fill:#3F79BC;fill-rule:nonzero}
    .fil16 {fill:#2C3C43;fill-rule:nonzero}
    .fil15 {fill:#2867B0;fill-rule:nonzero}
    .fil23 {fill:#252C31;fill-rule:nonzero}
    .fil25 {fill:#1D5DA9;fill-rule:nonzero}
    .fil26 {fill:#305285;fill-rule:nonzero}
   ]]>
  </style>
 </defs>
 <g id="Camada_x0020_1">
  <metadata id="CorelCorpID_0Corel-Layer"/>
  <polygon class="fil0" points="13591,13831.88 14509.22,13831.88 14509.22,13821.29 13591,13821.29 "/>
  <polygon class="fil0" points="8607.36,13612.11 10052.04,13612.11 10052.04,13601.52 8607.36,13601.52 "/>
  <polygon class="fil0" points="12251.07,13438.58 14136.91,13438.58 14136.91,13427.99 12251.07,13427.99 "/>
  <polygon class="fil0" points="2310.02,13652.09 2781.73,13652.09 2781.73,13641.5 2310.02,13641.5 "/>
  <polygon class="fil0" points="306.97,13652.09 1932.88,13652.09 1932.88,13641.5 306.97,13641.5 "/>
  <path class="fil1" d="M323.61 4339.42c489.16,0 885.69,-396.52 885.69,-885.64 0,-489.15 -396.52,-885.68 -885.69,-885.68l-108.63 0 0 1771.32 108.63 0z"/>
  <path class="fil1" d="M12830.95 4339.42c489.15,0 885.68,-396.52 885.68,-885.64 0,-489.15 -396.52,-885.68 -885.68,-885.68l-108.64 0 0 1771.32 108.64 0z"/>
  <path class="fil2" d="M11836.66 3453.78c0,489.12 396.52,885.64 885.64,885.64 489.15,0 885.68,-396.52 885.68,-885.64 0,-489.15 -396.52,-885.68 -885.68,-885.68 -489.12,0 -885.64,396.52 -885.64,885.68z"/>
  <path class="fil1" d="M12681.72 3565.09c-653.7,0 -1185.55,-531.85 -1185.55,-1185.55l0 -708.33c0,-61.51 49.85,-111.36 111.31,-111.36 61.51,0 111.36,49.85 111.36,111.36l0 708.33c0,530.96 431.93,962.9 962.89,962.9 61.46,0 111.31,49.85 111.31,111.34 0,61.46 -49.85,111.31 -111.31,111.31z"/>
  <path class="fil2" d="M10622.31 2294.78l1970.39 0c135.02,0 233.46,-127.86 198.89,-258.41l-170.89 -645.31c-23.93,-90.21 -105.56,-153.03 -198.9,-153.03l-1628.58 0c-93.31,0 -174.98,62.82 -198.86,153.03l-170.91 645.31c-34.6,130.54 63.84,258.41 198.86,258.41z"/>
  <g id="_2264286972000">
   <polygon class="fil3" points="3172.25,10654.49 3816.34,10654.49 3816.34,8158.54 3172.25,8158.54 "/>
   <polygon class="fil4" points="1425.96,10654.49 3563.6,10654.49 3886.43,7733.15 1748.78,7733.15 "/>
   <polygon class="fil2" points="1194.44,10654.49 3402.44,10654.49 3725.27,7733.15 1517.26,7733.15 "/>
   <polygon class="fil5" points="3242.89,10424.24 3514.85,7963.36 1676.79,7963.36 1404.86,10424.24 "/>
   <path class="fil2" d="M2863.31 9827.77l11.09 -100.3c68.19,-617.36 -317.27,-1167.64 -818,-1167.64l-11.09 100.3c-68.23,617.4 317.28,1167.64 818,1167.64l0 0z"/>
   <polygon class="fil3" points="-0,13473 1899.15,13473 1899.15,10654.49 -0,10654.49 "/>
   <polygon class="fil4" points="191.02,13473 -0,13473 -0,12929.61 391.31,12929.61 "/>
   <polygon class="fil3" points="5322.73,13473 7221.87,13473 7221.87,10654.49 5322.73,10654.49 "/>
   <polygon class="fil4" points="-0,13139.56 5489.43,13139.56 5489.43,10654.49 -0,10654.49 "/>
   <polygon class="fil4" points="5298.42,13473 5489.43,13473 5489.43,12929.61 5098.12,12929.61 "/>
   <polygon class="fil3" points="148.19,11812.69 5341.22,11812.69 5341.22,10809.94 148.19,10809.94 "/>
   <path class="fil4" d="M2398.38 11463.65l692.62 0c300.85,0 588.48,-123.72 795.43,-342.11l-2283.45 0c206.92,218.39 494.55,342.11 795.4,342.11z"/>
   <polygon class="fil3" points="148.19,12977.48 5341.22,12977.48 5341.22,11974.73 148.19,11974.73 "/>
   <path class="fil4" d="M2398.38 12628.43l692.62 0c300.85,0 588.48,-123.67 795.43,-342.1l-2283.45 0c206.92,218.43 494.55,342.1 795.4,342.1z"/>
   <path class="fil3" d="M5141.7 10539.54l49.04 0c-0.5,-101.1 0.22,-357.47 5.13,-945.02 8.85,-1064.96 25.75,-1129.89 25.75,-1129.89l-116.82 491.61c-74.03,544.43 21.43,1091.48 36.89,1583.3z"/>
   <path class="fil3" d="M5044.7 8883c-168.15,-200.42 -527.36,-258.74 -895.16,-308.59 -144.4,-19.62 379.45,310.37 635.48,544.73 198.94,182.07 326.1,232.39 380.74,413.84 28.42,-226.25 23.8,-477.29 -121.06,-649.97z"/>
   <path class="fil3" d="M5267.75 9241.15c168.1,-200.38 527.36,-258.71 895.16,-308.59 144.39,-19.57 -379.45,310.42 -635.53,544.76 -198.9,182.04 -326.1,232.35 -380.69,413.8 -28.47,-226.25 -23.84,-477.29 121.06,-649.97z"/>
   <path class="fil3" d="M5195.74 8417.52c126.05,-239.52 443.29,-465.02 799.23,-550.57 139.77,-33.58 -323.71,442.32 -499.86,749.13 -136.86,238.37 -318.34,518.39 -346.56,719.52 -42.56,-398.52 -78.86,-678.57 47.18,-918.08z"/>
   <path class="fil4" d="M5180.88 10654.49c-150.18,0 -274.29,-75.25 -282.94,-171.58l-25.02 -164.58 615.92 0 -25.03 164.58c-8.64,96.32 -132.74,171.58 -282.94,171.58z"/>
   <polygon class="fil4" points="5528.69,10381.65 4833.06,10381.65 4813.11,10198.33 5548.6,10198.33 "/>
  </g>
  <polygon class="fil3" points="2634.58,6545.93 9420.07,6545.93 9420.07,356.58 2634.58,356.58 "/>
  <polygon class="fil2" points="2481.89,6545.93 9353.7,6545.93 9353.7,356.58 2481.89,356.58 "/>
  <polygon class="fil6" points="2755.97,6268.68 9079.62,6268.68 9079.62,633.84 2755.97,633.84 "/>
  <polygon class="fil5" points="8303.68,6268.68 5814.83,633.84 4969.47,633.84 7458.32,6268.68 "/>
  <polygon class="fil5" points="7218.68,6268.68 4729.83,633.84 4147.74,633.84 6636.55,6268.68 "/>
  <polygon class="fil3" points="4777.02,6268.68 5104.04,6268.68 5104.04,633.84 4777.02,633.84 "/>
  <polygon class="fil3" points="6950.62,6268.68 7277.62,6268.68 7277.62,633.84 6950.62,633.84 "/>
  <polygon class="fil2" points="4631.69,6444.62 5045.06,6444.62 5045.06,427.66 4631.69,427.66 "/>
  <polygon class="fil2" points="6805.34,6444.62 7218.68,6444.62 7218.68,427.66 6805.34,427.66 "/>
  <polygon class="fil3" points="2755.97,6268.68 2785.07,6268.68 2785.07,633.84 2755.97,633.84 "/>
  <path class="fil3" d="M2366.77 0l7351.35 0c19.44,0 35.32,15.93 35.32,35.37 0,19.44 -15.88,35.32 -35.32,35.32l-7351.35 0c-19.44,0 -35.32,-15.88 -35.32,-35.32 0,-19.44 15.88,-35.37 35.32,-35.37z"/>
  <path class="fil3" d="M9420.07 233.34l0 0c26.26,0 47.74,-21.53 47.74,-47.74l0 -102.54c0,-26.22 -21.48,-47.69 -47.74,-47.69 -26.26,0 -47.74,21.47 -47.74,47.69l0 102.54c0,26.21 21.48,47.74 47.74,47.74z"/>
  <path class="fil3" d="M2899.89 233.34c26.26,0 47.74,-21.48 47.74,-47.74l0 -102.54c0,-26.22 -21.48,-47.69 -47.74,-47.69 -26.22,0 -47.69,21.47 -47.69,47.69l0 102.54c0,26.26 21.47,47.74 47.69,47.74z"/>
  <path class="fil7" d="M2481.89 2235.57l-103.8 0 0 -2164.88 475.73 0c-1.06,3.99 -1.61,8.09 -1.61,12.37l0 102.54c0,26.26 21.47,47.74 47.69,47.74 26.26,0 47.74,-21.48 47.74,-47.74l0 -102.54c0,-4.27 -0.55,-8.38 -1.61,-12.37l2777.54 0 0 285.89 -3241.67 0 0 1878.99zm6763 -1878.99l-3001.04 0 0 -285.89 3001.04 0 0 285.89zm-3011.63 0l-499.12 0 0 -285.89 499.12 0 0 285.89z"/>
  <polygon class="fil8" points="5723.55,356.58 5734.14,356.58 5734.14,70.7 5723.55,70.7 "/>
  <polygon class="fil8" points="6233.26,356.58 6243.85,356.58 6243.85,70.7 6233.26,70.7 "/>
  <path class="fil9" d="M9244.89 4040.31c-41.17,-6.65 -87.55,-13.6 -137.43,-20.07 -0.72,-2.85 -1.49,-5.64 -2.25,-8.48 -2.63,-9.4 -11.19,-15.58 -20.46,-15.58 -1.69,0 -3.43,0.22 -5.13,0.64l0 -3362.98 -1860.94 0 0 -206.13 -413.35 0 0 206.13 -1760.26 0 0 -206.13 -413.38 0 0 206.13 -1875.72 0 0 1601.73 -274.09 0 0 -1878.99 6763 0 0 3683.73z"/>
  <path class="fil10" d="M6805.34 4882.32l-138.32 0 -23.64 -458.66 161.96 366.62 0 92.04zm718.38 -379.45l-246.08 -557.14 0 -3311.89 -58.96 0 1860.94 0 0 3362.98c-0.17,0.04 -0.3,0.08 -0.47,0.12 -8.51,2.33 -14.4,9.58 -15.42,17.84 -77.55,-9.28 -161.71,-17.2 -246.46,-21.26 -135.62,-6.53 -257.6,-11.83 -375.98,-11.83 -93.31,0 -184.38,3.27 -278.31,11.86 -82.22,7.5 -167.64,18.38 -247.36,30.03 -1.9,-0.97 -3.72,-1.9 -5.58,-2.75 -16.35,-7.76 -31.47,-11.65 -45.19,-11.65 -9.32,0 -18.01,1.82 -26.01,5.41 -8.9,4.03 -13.69,13.43 -12.25,22.62 -150.53,24.11 -263.32,47.18 -263.32,47.18 0,0 -54.64,19.27 -39.56,418.47zm-718.38 -1626.51l-990.5 -2242.52 -769.76 0 1760.26 0 0 2242.52zm-1128.42 -640.79l-239.59 0 -333.29 -754.55 0 -542.57 572.88 1297.11zm-1045.23 0l-1846.63 0 0 -1601.73 -29.09 0 0 1601.73 0 -1601.73 1875.72 0 -483.95 0 483.95 1095.72 0 506.01z"/>
  <path class="fil0" d="M7550.36 4882.32l-272.72 0 0 -936.59 246.08 557.14c3.81,100.5 12.03,225.03 26.64,379.45zm-745.03 -92.04l-161.96 -366.62 -96.82 -1878.9c-8.81,-170.77 -154.35,-309.19 -325.08,-309.19l-544.56 0 -572.88 -1297.11 0 -304.62 -58.96 0 769.76 0 990.5 2242.52 0 1913.93z"/>
  <path class="fil0" d="M5437.33 2235.57l-333.29 0 0 -754.55 333.29 754.55zm-805.63 -506.01l-483.95 -1095.72 483.95 0 0 1095.72z"/>
  <polygon class="fil11" points="5104.04,2235.57 5045.08,2235.57 5045.08,633.84 5104.04,633.84 "/>
  <polygon class="fil11" points="7277.64,4882.32 7218.68,4882.32 7218.68,633.84 7277.64,633.84 "/>
  <polygon class="fil9" points="5045.08,2235.57 4631.69,2235.57 4631.69,427.7 5045.08,427.7 "/>
  <polygon class="fil9" points="7218.68,4882.32 6805.34,4882.32 6805.34,427.7 7218.68,427.7 "/>
  <polygon class="fil11" points="2755.97,2235.57 2785.07,2235.57 2785.07,633.84 2755.97,633.84 "/>
  <path class="fil11" d="M9244.89 70.69l-6298.87 0c-5.51,-20.29 -24.14,-35.32 -46.13,-35.32l6345 0 0 35.32zm-6391.08 0l-475.73 0 0 -35.32 521.81 0c-21.98,0 -40.58,15.03 -46.08,35.32z"/>
  <path class="fil11" d="M2899.89 233.34c-26.22,0 -47.69,-21.48 -47.69,-47.74l0 -102.54c0,-4.27 0.55,-8.38 1.61,-12.37 5.5,-20.29 24.1,-35.32 46.08,-35.32l0 0c21.98,0 40.62,15.03 46.13,35.32 1.06,3.99 1.61,8.09 1.61,12.37l0 102.54c0,26.26 -21.48,47.74 -47.74,47.74z"/>
  <path class="fil6" d="M9866.49 8958l-1183.86 0c-125.88,0 -227.96,-102.04 -227.96,-227.96l0 -547.95c0,-125.92 102.08,-227.95 227.96,-227.95l1183.86 0c125.87,0 227.95,102.03 227.95,227.95l0 547.95c0,125.92 -102.08,227.96 -227.95,227.96z"/>
  <path class="fil3" d="M10017.91 7983.67l-1486.7 0c-42.27,0 -76.54,-34.27 -76.54,-76.54l0 -61.88c0,-42.27 34.27,-76.54 76.54,-76.54l1486.7 0c42.26,0 76.53,34.27 76.53,76.54l0 61.88c0,42.27 -34.27,76.54 -76.53,76.54z"/>
  <path class="fil4" d="M8478.82 10071.21c0,0 21.48,705.75 844,705.75 822.54,0 844,-705.75 844,-705.75l-1688.01 0z"/>
  <path class="fil4" d="M10354.33 10071.21c0,0 21.47,705.75 844,705.75 822.57,0 844,-705.75 844,-705.75l-1688.01 0z"/>
  <path class="fil4" d="M11635.31 8958l-1626.9 0c-173.01,0 -313.25,-140.24 -313.25,-313.26l0 -832.02c0,-173.02 140.24,-313.25 313.25,-313.25l1626.9 0c173.02,0 313.25,140.23 313.25,313.25l0 832.02c0,173.02 -140.23,313.26 -313.25,313.26z"/>
  <path class="fil2" d="M11843.4 7540.08l-2043.06 0c-58.12,0 -105.17,-47.1 -105.17,-105.16l0 -85.1c0,-58.11 47.05,-105.16 105.17,-105.16l2043.06 0c58.11,0 105.16,47.05 105.16,105.16l0 85.1c0,58.06 -47.05,105.16 -105.16,105.16z"/>
  <polygon class="fil3" points="7859.3,13139.52 8072.67,13139.52 8072.67,9639.18 7859.3,9639.18 "/>
  <polygon class="fil3" points="12866.99,9639.19 14022.84,9639.19 14022.84,8958 12866.99,8958 "/>
  <polygon class="fil2" points="7120.24,9639.19 12866.94,9639.19 12866.94,8958 7120.24,8958 "/>
  <polygon class="fil3" points="12866.99,11458.2 14022.84,11458.2 14022.84,10777.01 12866.99,10777.01 "/>
  <polygon class="fil2" points="7120.24,11458.2 12866.99,11458.2 12866.99,10777.01 7120.24,10777.01 "/>
  <polygon class="fil3" points="13606.04,13139.52 13819.41,13139.52 13819.41,9639.18 13606.04,9639.18 "/>
  <polygon class="fil2" points="12653.56,13139.52 12866.99,13139.52 12866.99,9639.18 12653.56,9639.18 "/>
  <polygon class="fil2" points="7120.24,13139.52 7333.64,13139.52 7333.64,9639.18 7120.24,9639.18 "/>
  <path class="fil2" d="M14254.57 14572.81c0,264.88 -3070.9,479.62 -6859.05,479.62 -3788.15,0 -6859.05,-214.74 -6859.05,-479.62 0,-264.85 3070.9,-479.59 6859.05,-479.59 3788.15,0 6859.05,214.74 6859.05,479.59z"/>
  <path class="fil12" d="M6483.52 12423.63l-5403.36 0c-178.53,0 -330.71,-144.73 -339.9,-323.25l-483.6 -9383.7c-9.2,-178.57 128.08,-323.25 306.56,-323.25l5403.37 0c178.52,0 330.71,144.69 339.94,323.25l483.56 9383.7c9.23,178.52 -128.03,323.25 -306.56,323.25z"/>
  <path class="fil13" d="M6483.52 12423.63l-5403.36 0c-105.47,0 -201.74,-50.47 -264.77,-128.63 -43.67,-54.12 -71.36,-121.5 -75.13,-194.62l-400.43 -7769.69 -83.18 -1614.01c-0.3,-5.58 -0.42,-11.14 -0.42,-16.64 -0.17,-170.82 134.05,-306.61 306.98,-306.61l228.97 0c-22.87,44.73 -34.57,96.36 -31.72,151.34l462.51 8974.55c8.81,170.77 154.34,309.19 325.11,309.19l5167.75 0c20.63,0 40.66,-2.02 59.93,-5.87l14.31 277.75c0.3,5.59 0.47,11.14 0.47,16.65 0.13,170.82 -134.1,306.6 -307.03,306.6z"/>
  <polygon class="fil12" points="4835.63,2129.69 5433.34,2129.69 5433.34,2087.33 4835.63,2087.33 "/>
  <polygon class="fil12" points="4409.75,2129.69 4628.61,2129.69 4628.61,2087.33 4409.75,2087.33 "/>
  <path class="fil12" d="M6715.84 11828.5l-5167.75 0c-170.77,0 -316.3,-138.42 -325.11,-309.19l-462.51 -8974.55c-8.76,-170.77 122.49,-309.19 293.22,-309.19l5167.79 0c170.73,0 316.26,138.42 325.08,309.19l462.51 8974.55c8.81,170.77 -122.49,309.19 -293.22,309.19z"/>
  <path class="fil5" d="M1053.69 2452.64c-28.68,0 -46.51,12.45 -56.42,22.84 -9.95,10.49 -21.51,29.09 -20.04,58.11l462.56 8974.59c2.8,55.02 53.4,103.25 108.29,103.25l5167.75 0c28.72,0 46.51,-12.41 56.38,-22.81 9.99,-10.47 21.55,-29.07 20.07,-58.12l-462.52 -8974.56c-2.83,-55.01 -53.45,-103.3 -108.29,-103.3l-5167.79 0zm5662.15 9169.38l-5167.75 0c-60.22,0 -115.8,-52.95 -118.88,-113.3l-462.56 -8974.63c-1.66,-32.74 11.56,-53.92 22.96,-65.87 11.31,-11.95 31.64,-26.17 64.09,-26.17l5167.79 0c60.19,0 115.75,52.95 118.88,113.34l462.52 8974.56c1.64,32.78 -11.56,53.96 -22.96,65.95 -11.31,11.9 -31.6,26.13 -64.09,26.13z"/>
  <path class="fil14" d="M3839.7 6157.42c-863.99,0 -1600.51,-700.42 -1645.06,-1564.42 -44.52,-863.99 619.81,-1564.42 1483.82,-1564.42 863.99,0 1600.49,700.42 1645.01,1564.42 44.55,863.99 -619.78,1564.42 -1483.77,1564.42z"/>
  <path class="fil5" d="M5024.79 4593c11.26,218.59 -33.63,423.84 -121.9,602.92 -193.18,394.48 -597.41,662.81 -1078.57,662.81 -481.19,0 -913.09,-268.32 -1146.92,-662.81 -106.73,-179.08 -172.77,-384.33 -184.04,-602.92 -36.04,-699.15 501.36,-1265.69 1200.46,-1265.69 699.15,0 1294.92,566.54 1330.96,1265.69z"/>
  <path class="fil12" d="M4902.89 5195.92c-193.18,394.48 -597.41,662.81 -1078.57,662.81 -481.19,0 -913.09,-268.32 -1146.92,-662.81 307.66,-212.88 683.64,-337.14 1095.37,-337.14 411.69,0 800.51,124.26 1130.11,337.14z"/>
  <path class="fil12" d="M4300.57 4160c16.05,311.35 -223.34,563.79 -534.74,563.79 -311.39,0 -576.82,-252.44 -592.84,-563.79 -16.05,-311.39 223.34,-563.82 534.73,-563.82 311.39,0 576.83,252.43 592.85,563.82z"/>
  <path class="fil5" d="M5975.22 8337.5l-4046.31 0c-72.26,0 -133.84,-58.58 -137.58,-130.84l-30.62 -594.58c-3.73,-72.25 51.79,-130.83 124.06,-130.83l4046.31 0c72.26,0 133.84,58.58 137.58,130.83l30.66 594.58c3.69,72.26 -51.84,130.84 -124.11,130.84z"/>
  <path class="fil15" d="M4736.05 7154.74l-1689.92 0c-72.25,0 -133.83,-58.58 -137.57,-130.83l-6.48 -126.26c-3.72,-72.26 51.81,-130.79 124.06,-130.79l1689.96 0c72.25,0 133.83,58.53 137.57,130.79l6.48 126.26c3.72,72.25 -51.84,130.83 -124.11,130.83z"/>
  <path class="fil15" d="M5364.51 11187.34l-2531.16 0c-123.04,0 -227.91,-99.7 -234.26,-222.77l-15.04 -291.92c-6.35,-123.05 88.27,-222.8 211.31,-222.8l2531.17 0c123.04,0 227.91,99.75 234.26,222.8l15.03 291.92c6.36,123.07 -88.26,222.77 -211.31,222.77z"/>
  <path class="fil5" d="M6049.1 9770.57l-4046.33 0c-72.25,0 -133.84,-58.58 -137.57,-130.83l-30.66 -594.58c-3.73,-72.26 51.84,-130.84 124.09,-130.84l4046.33 0c72.25,0 133.84,58.58 137.57,130.84l30.63 594.58c3.72,72.25 -51.81,130.83 -124.06,130.83z"/>
  <path class="fil16" d="M2443.48 7909.38c4.11,79.96 -57.4,144.81 -137.36,144.81 -80.01,0 -148.2,-64.84 -152.31,-144.81 -4.11,-80.01 57.39,-144.85 137.36,-144.85 80.01,0 148.16,64.84 152.31,144.85z"/>
  <path class="fil16" d="M2888.5 7909.38c4.11,79.96 -57.39,144.81 -137.36,144.81 -80.01,0 -148.19,-64.84 -152.3,-144.81 -4.12,-80.01 57.39,-144.85 137.35,-144.85 80.01,0 148.2,64.84 152.31,144.85z"/>
  <path class="fil16" d="M3333.51 7909.38c4.12,79.96 -57.39,144.81 -137.35,144.81 -80.01,0 -148.16,-64.84 -152.31,-144.81 -4.11,-80.01 57.39,-144.85 137.4,-144.85 79.96,0 148.16,64.84 152.26,144.85z"/>
  <path class="fil16" d="M3778.54 7909.38c4.14,79.96 -57.35,144.81 -137.36,144.81 -79.96,0 -148.16,-64.84 -152.26,-144.81 -4.15,-80.01 57.34,-144.85 137.35,-144.85 79.97,0 148.17,64.84 152.27,144.85z"/>
  <path class="fil16" d="M2517.3 9342.45c4.14,80.01 -57.35,144.85 -137.36,144.85 -79.96,0 -148.16,-64.84 -152.26,-144.85 -4.15,-79.96 57.34,-144.81 137.35,-144.81 79.97,0 148.16,64.84 152.27,144.81z"/>
  <path class="fil16" d="M2962.36 9342.45c4.12,80.01 -57.39,144.85 -137.4,144.85 -79.96,0 -148.16,-64.84 -152.26,-144.85 -4.15,-79.96 57.39,-144.81 137.36,-144.81 80.01,0 148.16,64.84 152.3,144.81z"/>
  <path class="fil16" d="M3407.39 9342.45c4.11,80.01 -57.39,144.85 -137.36,144.85 -80.01,0 -148.19,-64.84 -152.31,-144.85 -4.11,-79.96 57.39,-144.81 137.36,-144.81 80.01,0 148.2,64.84 152.31,144.81z"/>
  <path class="fil16" d="M3852.4 9342.45c4.11,80.01 -57.39,144.85 -137.35,144.85 -80.01,0 -148.17,-64.84 -152.31,-144.85 -4.12,-79.96 57.39,-144.81 137.35,-144.81 80.01,0 148.2,64.84 152.31,144.81z"/>
  <path class="fil16" d="M4297.43 9342.45c4.14,80.01 -57.35,144.85 -137.36,144.85 -79.97,0 -148.16,-64.84 -152.31,-144.85 -4.11,-79.96 57.39,-144.81 137.4,-144.81 79.97,0 148.16,64.84 152.27,144.81z"/>
  <path class="fil16" d="M4742.49 9342.45c4.12,80.01 -57.39,144.85 -137.4,144.85 -79.96,0 -148.16,-64.84 -152.26,-144.85 -4.15,-79.96 57.35,-144.81 137.36,-144.81 79.96,0 148.16,64.84 152.3,144.81z"/>
  <path class="fil17" d="M9559.21 4424.05c10.63,15.7 16,24.35 22.99,35.66l18.93 31.68c12.28,20.96 23.04,41.89 33.89,62.8 21.17,41.89 41.2,83.83 59.12,126.18 36.31,84.7 66.08,171.19 91.83,258.27 52.18,174.08 84.07,352.47 100.42,530.92l3.3 33.46c0.6,4.78 1.02,12.32 1.36,20.19l0.94 22.79c0.54,30.12 -0.94,59.9 -5.13,88.06 -7.96,56.79 -23.26,109.23 -42.02,157.72 -38.07,96.56 -90.38,178.61 -146.5,253.28 -114.87,148.71 -245.28,267.72 -394.28,373.23l-116.69 -136.64c104.69,-121.09 206.13,-255.27 281.27,-389.24 38.34,-66.79 67.64,-135.7 85.86,-199.91 8.56,-32.1 13.17,-62.98 13.89,-90.81 0.98,-14.06 -0.04,-27.06 -1.39,-39.38l-1.31 -9.03c-0.3,-2.75 -0.64,-5.85 -1.74,-11.56l-5.29 -29.82c-27.7,-158.95 -65.52,-315.16 -115.11,-466.03 -24.36,-75.64 -54.47,-148.74 -85.02,-220.58 -15.12,-36.04 -31.85,-70.99 -48.96,-105.09l-26.26 -49.77 -13.05 -23.59 -10.76 -18.5 299.71 -204.32z"/>
  <path class="fil18" d="M9163.82 6421.03l153.37 323.8 121.65 -273.83c0,0 -107.79,-237.18 -253.66,-215.45l-21.35 165.48z"/>
  <polygon class="fil18" points="9427.1,6760.89 9548.87,6561.23 9438.83,6471 9317.19,6744.84 "/>
  <path class="fil12" d="M8807.58 14208.38c-61.8,12.37 -108.22,10.21 -126.17,-6.17 -7.67,-6.95 -10.47,-16.75 -8.64,-29.87 1.02,-7.12 4.27,-9.45 6.99,-10.67 21.82,-10 83.91,20.16 127.83,46.72zm-69.92 24.73c32.78,0 68.61,-6.77 93.68,-12.74l6.35 -6.7 -3.69 -8.48c-12.11,-8.01 -119.9,-77.55 -161.16,-58.87 -6.52,2.97 -14.74,9.45 -16.72,23.63 -2.63,18.81 2.03,33.85 13.93,44.69 15.13,13.76 40.33,18.47 67.61,18.47z"/>
  <path class="fil12" d="M8769.04 14076.83c6.9,0 13,2.41 18.59,7.36 23,20.39 30.93,77.73 32.87,111.69 -33.76,-26.91 -73.99,-84.41 -69.12,-108.81 0.8,-3.97 3.09,-8.72 13.84,-10.03l3.82 -0.22zm60.35 143.78l4.24 -1.14 4.19 -7.24c0,-4.36 -0.52,-106.49 -39.06,-140.62 -10.25,-9.1 -22.27,-12.93 -35.57,-11.23 -21.05,2.53 -26.77,15.75 -28.3,23.41 -8,39.99 56.5,116.53 90.39,135.72l4.11 1.09z"/>
  <path class="fil12" d="M8140.45 14087.12c18.89,-20.47 102.66,-25.96 165.61,-24.95 -66,44.69 -120.46,66.03 -148.08,57.43 -9.69,-2.99 -16.22,-9.69 -20.03,-20.36 -1.49,-4.19 -1.1,-7.46 1.22,-10.63l1.27 -1.49zm197.2 -26.86l1.91 -8.08 -7.67 -6.02c-17.58,-0.85 -169.79,-7.17 -204.1,29.9l-2.08 2.5c-5.71,7.72 -6.99,16.81 -3.6,26.27 5.64,15.82 16.02,26.22 30.88,30.83 49.3,15.32 136.09,-39.99 183.44,-74.31l1.22 -1.09z"/>
  <path class="fil12" d="M8185.55 13975.34l8.04 -6.14c11.06,-6.5 22.67,-7.96 35.45,-4.54 36.81,9.95 71.45,57.02 86.78,80.56 -50.05,-5.71 -126.81,-36.68 -133.28,-60.23 -0.43,-1.4 -1.36,-4.91 3,-9.65zm152.09 84.92l1.1 -1.49 0.04 -8.33c-1.98,-3.51 -49.3,-86.88 -105.38,-101.98 -17.11,-4.62 -33.41,-2.52 -48.32,6.24 -20.16,11.84 -21.3,25.46 -18.77,34.75 10.84,39.26 118.81,73.83 165.23,73.53l6.1 -2.71z"/>
  <path class="fil18" d="M8803.94 3183.26c-41.26,210.55 -133.98,669.76 13.34,810.25 0,0 -57.56,213.55 -448.75,213.55 -430.12,0 -205.54,-213.52 -205.54,-213.52 234.77,-56.08 228.72,-230.24 187.8,-393.81l453.16 -416.48z"/>
  <path class="fil16" d="M8087.12 2686.78l7.54 -1.79c8.26,-4.14 11.66,-14.23 7.5,-22.57 -41.64,-83.09 -118.64,-92.76 -121.9,-93.1 -9.2,-1.14 -17.54,5.55 -18.6,14.78 -1.06,9.2 5.55,17.49 14.7,18.6 2.55,0.3 62.52,8.48 95.72,74.8 2.97,5.88 8.9,9.28 15.03,9.28z"/>
  <path class="fil19" d="M7958.87 2870.76c0,0 -63.32,116.31 -123.67,168.75 33.16,39.6 98.91,31.52 98.91,31.52l24.77 -200.26z"/>
  <path class="fil16" d="M7990.34 2825.1c-3.51,28.43 -21.43,49.56 -39.98,47.27 -18.59,-2.28 -30.78,-27.18 -27.28,-55.56 3.52,-28.42 21.43,-49.56 39.99,-47.27 18.55,2.28 30.75,27.19 27.27,55.56z"/>
  <path class="fil16" d="M7971.07 2772.12l-65.77 -28.08c0,0 28.42,57.61 65.77,28.08z"/>
  <polygon class="fil18" points="8711.47,13979.8 8365.98,14060.48 8156.03,13265.82 8501.52,13185.13 "/>
  <polygon class="fil18" points="9241.97,14212.2 8887.2,14212.2 8915.03,13390.62 9269.8,13390.62 "/>
  <path class="fil16" d="M8859.08 14171.15l398.6 0c14.48,0 26.26,10.07 28.29,24.22l45.41 315.35c4.74,32.72 -23.42,63.69 -56.84,63.1 -138.97,-2.41 -205.93,-10.54 -381.24,-10.54 -107.84,0 -265.35,11.17 -414.27,11.17 -145.66,0 -156.84,-147.22 -94.84,-160.57 278.02,-59.79 321.94,-142.27 415.59,-220.92 16.89,-14.18 38.07,-21.8 59.3,-21.8z"/>
  <path class="fil16" d="M8335.37 14007.54l362.09 -166.55c13.17,-6.05 28.08,-1.87 35.87,10.16l173.02 267.52c17.95,27.75 5.33,67.65 -25.28,81.11 -127.24,55.86 -191.49,76.44 -350.75,149.72 -97.97,45.07 -295.89,148.46 -431.17,210.68 -132.31,60.85 -204.07,-68.24 -153.28,-106.23 227.58,-170.51 292.55,-291.2 344.73,-401.77 9.45,-19.95 25.5,-35.77 44.77,-44.64z"/>
  <polygon class="fil20" points="8609.78,13594.95 8551.55,13374.45 8551.72,13374.37 8609.95,13594.91 "/>
  <polygon class="fil21" points="8268.56,13691.72 8216.81,13495.72 8551.55,13374.45 8609.78,13594.95 "/>
  <polygon class="fil20" points="9255.69,13814.35 9255.44,13814.35 9258.23,13732.35 9258.44,13732.35 "/>
  <polygon class="fil21" points="9255.44,13814.35 8900.76,13814.35 8903.51,13732.35 9258.23,13732.35 "/>
  <path class="fil16" d="M9429.13 4074.11c147.35,32.32 304.79,562.51 304.79,562.51l-416.73 443.12c0,0 -345.74,-497.96 -275.3,-681.11 73.36,-190.68 213.04,-362.69 387.24,-324.52z"/>
  <path class="fil22" d="M9284.03 5030.36c-11.23,-17.37 -24.78,-38.67 -39.73,-62.95 0.04,-0.12 0.04,-0.2 0.08,-0.29 14.91,24.26 28.47,45.53 39.73,62.94 0,0.08 -0.05,0.22 -0.08,0.3z"/>
  <path class="fil23" d="M9284.11 5030.06c-11.26,-17.41 -24.82,-38.67 -39.73,-62.94 17.19,-102.12 37.82,-212.92 62.38,-334.61 26.39,143.93 0.8,303.51 -22.66,397.55z"/>
  <path class="fil16" d="M7563.28 4084.4c0,0 -169,59.55 169.55,2141.25 571.74,0 1162.63,0 1440.86,0 -24.18,-586.4 -24.86,-948.02 255.44,-2151.54 0,0 -301.9,-65.65 -611.85,-80.6 -242.49,-11.69 -441.13,-19.45 -654.3,0.04 -281.03,25.62 -599.7,90.85 -599.7,90.85z"/>
  <path class="fil24" d="M7583.94 5193.37c-13.84,-113.42 -24.68,-215.03 -33.16,-306.31 8.73,91.37 19.62,193.01 33.16,306.31z"/>
  <path class="fil23" d="M7588.14 5227.3c-1.4,-11.44 -2.8,-22.75 -4.2,-33.93 -13.54,-113.3 -24.43,-214.94 -33.16,-306.31 -0.08,-1.22 -0.2,-2.45 -0.34,-3.69 58.03,-84.7 134.26,-179.59 216.85,-240.95 35.32,176.36 -61.16,478.61 -179.15,584.88z"/>
  <path class="fil17" d="M7704.23 4567.8c-78.4,198 -164.71,386.19 -261.88,574.12 -97,187.67 -200.55,372.08 -338.2,550.39l-27.11 33.38 -13.51 16.6c-4.66,5.63 -8.31,10.54 -15.8,18.26 -26.17,28.87 -54.56,53.66 -83.66,74.41 -58.31,41.59 -118.63,68.06 -177.08,88.44 -117.07,39.39 -230.2,53.37 -340.54,59.97 -221.38,8.98 -430.83,-11.51 -642.05,-57l23.51 -178.11c97.33,0.52 199.45,-1.69 297.88,-7.88 98.94,-5.16 196.86,-15.75 290.8,-32.52 93.73,-15.72 184.41,-39.56 260.02,-72.47 37.31,-16.74 69.77,-36.76 93.61,-57.05 12.03,-10.12 21.43,-20.46 28.97,-30.33 1.61,-1.44 5.38,-7.02 8.63,-11.56l9.87 -13.98 19.82 -27.83c104.37,-154.39 195.98,-333.76 283.49,-513.04 85.94,-180.09 168.87,-366.87 246.68,-549.12l336.54 135.32z"/>
  <path class="fil16" d="M7563.28 4084.4c-176.32,42.99 -393.31,527.1 -393.31,527.1l365.98 537.7c0,0 487.3,-613.43 429.36,-800.89 -60.37,-195.22 -188.1,-316.05 -402.04,-263.92z"/>
  <path class="fil18" d="M5929.4 5774.65l-305.29 -140.95 -30.66 303.47c0,0 255.14,75.1 380.94,-1.81l-44.99 -160.7z"/>
  <polygon class="fil18" points="5441.26,5603.03 5412.13,5834.12 5593.44,5937.16 5624.11,5633.7 "/>
  <path class="fil18" d="M8957.26 2845.78c-64.59,346.12 -84.53,494.03 -282.84,651.25 -298.27,236.47 -709.32,81.49 -749.43,-276.96 -36.17,-322.66 75.52,-834.52 434.09,-931.05 353.28,-95.12 662.72,210.63 598.18,556.76z"/>
  <path class="fil16" d="M8196.95 2918.67c-19.79,176.49 -27.41,635.07 360.31,649.47 475.18,17.66 617.4,-388.26 575.04,-550.61 247.06,-201.19 282.8,-547.06 5.01,-811.82 -277.81,-264.71 -889.46,-116.72 -1060.35,141.17 -211.78,319.7 119.99,571.79 119.99,571.79z"/>
  <path class="fil12" d="M8672.71 2308.55c-22.96,-186.15 -5.11,-314.62 169,-314.62 174.12,0 412.37,63.28 499.71,241.63 87.38,178.4 94.4,457.23 -149.13,428.98 -243.54,-28.21 -492.08,-133.12 -519.58,-355.99z"/>
  <path class="fil16" d="M8942.78 2263.87c-41.47,-222.11 156.33,-846.97 638.96,-887.59 223.54,-18.81 327.06,221.76 209.99,261.41 211.19,-2.58 347.31,277.34 149.81,319.53 156.16,99.75 117.29,304.95 -105.08,405.54 -163.96,74.21 -836.26,208.34 -893.68,-98.89z"/>
  <path class="fil16" d="M9458.36 2502.28c-155.27,0.04 -317.66,-22.79 -418.26,-90.18 -61.07,-40.92 -94.57,-95.12 -99.57,-161.21 -0.43,-5.85 3.94,-10.93 9.74,-11.35 6.18,-0.47 10.93,3.94 11.39,9.78 4.44,59.21 34.82,108.09 90.21,145.19 191.65,128.33 634.64,86.78 773.44,41.47 119.4,-38.92 200.25,-114.44 216.3,-201.99 11.78,-64.21 -13.42,-125.03 -70.9,-171.33 -4.57,-3.69 -5.29,-10.37 -1.66,-14.91 3.69,-4.53 10.37,-5.25 14.91,-1.61 62.9,50.65 91.49,120.51 78.48,191.65 -17.49,95.3 -103.68,176.92 -230.58,218.34 -72.68,23.71 -219.62,46.13 -373.53,46.13z"/>
  <path class="fil18" d="M8088.91 2871.91c-42.57,58.91 -54.77,132.14 -45.41,191.22 14.11,88.82 100.72,94.72 163.4,37.78 56.46,-51.24 117.11,-159.25 70.9,-232.86 -45.53,-72.6 -140.28,-63.5 -188.89,3.85z"/>
  <path class="fil12" d="M8113.34 6225.65c0,0 205.89,2435.03 419.53,3807.36 172.55,1108.43 308.59,3699.35 308.59,3699.35l483.82 0c0,0 172.05,-2513.5 84.45,-3609.81 -221.6,-2774.16 272.65,-3000.12 -236.04,-3896.9l-1060.35 0z"/>
  <path class="fil22" d="M8422.15 9230.97c-5.63,-45.02 -11.26,-90.38 -16.81,-136.04l0 -0.05c5.58,45.71 11.18,91.03 16.81,136.09z"/>
  <path class="fil25" d="M8459.76 9522.07c-12.67,-94.87 -25.25,-192.16 -37.62,-291.1 -5.63,-45.06 -11.23,-90.38 -16.81,-136.09 141.72,-413.21 265.81,-748.7 364.07,-1054.51 -26.04,591.7 -160.56,1105.29 -309.65,1481.69z"/>
  <path class="fil12" d="M7774.72 6210.27c0,0 -446.67,2659.42 -517.25,3858.14 175.43,1108.47 892.96,3451.32 892.96,3451.32l440.07 -159.37c0,0 -243.46,-2554.85 -509.66,-3254.3 595.93,-2006.42 1033.93,-2513.53 906.48,-3880.41 -303.95,0 -1212.61,-15.38 -1212.61,-15.38z"/>
  <polygon class="fil16" points="8091.4,13636.81 8686.06,13475.34 8652.39,13238.34 8015.67,13410.51 "/>
  <polygon class="fil16" points="8775.26,13741.93 9391.48,13741.93 9423.84,13525.75 8771.74,13503.68 "/>
  <path class="fil12" d="M9195.29 6141.11l64.98 128.97c5.04,9.99 -6.82,20.19 -23.47,20.19l-1511.09 0c-13,0 -23.76,-6.35 -24.56,-14.53l-13 -128.97c-0.89,-8.93 10.34,-16.51 24.56,-16.51l1459.12 0c10.71,0 20.21,4.39 23.46,10.84z"/>
  <path class="fil26" d="M8415.84 6290.27l-690.13 0c-13,0 -23.76,-6.35 -24.56,-14.53l-13 -128.97c-0.05,-0.37 -0.05,-0.72 -0.05,-1.06 0,-8.46 10.97,-15.45 24.61,-15.45l613.51 0c21.43,59.97 50.79,114.06 89.63,160.01zm840.57 -6.14c1.56,-2.21 3.13,-4.44 4.66,-6.69 -0.68,2.45 -2.33,4.74 -4.66,6.69z"/>
  <path class="fil12" d="M8999.31 6304.26l39.06 0c7.79,0 13.72,-4.03 13.21,-8.94l-18.33 -167.56c-0.55,-4.91 -7.32,-8.88 -15.12,-8.88l-39.1 0c-7.79,0 -13.72,3.97 -13.17,8.88l18.35 167.56c0.5,4.91 7.32,8.94 15.12,8.94z"/>
  <path class="fil12" d="M8474.76 5069.95c-9.53,0 -17.96,-6.4 -20.42,-15.63 -138.2,-510.53 -425.41,-930.45 -562.39,-995.21 -15.37,-7.24 -28.07,-9.32 -35.69,-5.88 -10.77,4.83 -23.26,0 -28.05,-10.64 -4.79,-10.63 -0.04,-23.21 10.64,-28 19.74,-8.93 43.67,-6.77 71.2,6.23 146.21,69.12 435.92,484.21 580.85,1006.69 103.85,-1.31 264.07,-14.28 302.75,-17.53 48.42,-57.47 403.56,-501.45 270.69,-987.04 -3.09,-11.26 3.57,-22.96 14.83,-26.01 11.18,-3.09 22.92,3.52 26.05,14.83 147.9,540.54 -281.03,1027.86 -285.4,1032.74 -3.59,4.02 -8.55,6.48 -13.93,6.94 -2.13,0.22 -213.35,18.51 -331.13,18.51z"/>
  <path class="fil12" d="M9176.36 5369.36c-230.88,-432.78 -325.28,-463.03 -366.58,-602.15 0,0 37.19,-105.04 131.65,-211.4 -28.33,-7.88 -88.27,-19.86 -125.88,-27.1 4.27,-18.98 8.64,-37.7 12.92,-55.66 -31.17,-8.64 -95.98,0.3 -129.1,5.85l-1.48 -42.74c0,0 -117.07,-23.46 -164.12,-10.41 4.69,19.69 9.45,40.18 14.19,60.99 -41.25,7.96 -107,21.08 -138.03,29.73 89.91,101.27 122.35,209.4 129.34,236.09 -124.31,213.68 -608.17,1588.73 178.58,1692.11 787.24,103.48 689.37,-642.48 458.52,-1075.3z"/>
  <path class="fil27" d="M8857.64 6454.41c-43.16,0 -89.71,-3.13 -139.81,-9.75 -335.37,-44.05 -439.85,-319.18 -439.73,-636.97 0.17,-427.66 189.84,-932.52 261.16,-1055.14l0 0c-6.99,-26.69 -39.43,-134.82 -129.34,-236.09 31.04,-8.64 96.78,-21.77 138.03,-29.73l0 0c-4.74,-20.81 -9.5,-41.3 -14.19,-60.99 10.25,-2.85 23.8,-3.94 38.76,-3.94 53.7,0 125.37,14.35 125.37,14.35l1.48 42.74c23.22,-3.9 61.93,-9.45 93.78,-9.45 13.59,0 25.96,1.02 35.32,3.6 -4.27,17.96 -8.64,36.68 -12.92,55.66l0 0c37.62,7.24 97.55,19.22 125.88,27.1 -94.45,106.36 -131.65,211.4 -131.65,211.4l0 0c41.3,139.13 135.7,169.37 366.58,602.15 93.48,175.35 165.19,402.04 165.06,602.84 -0.13,263.37 -123.81,482.21 -483.77,482.21z"/>
  <path class="fil12" d="M8509.91 4711.63c-5.81,10.51 -5.29,50.32 -6.15,66.2 -0.89,15.88 41.47,26.47 89.12,30.88 47.64,4.41 244.42,12.32 238.24,-9.7 -6.18,-22.07 9.7,-52.09 10.59,-70.61 0.89,-18.55 -78.52,-19.4 -144.72,-16.77 -66.15,2.67 -173.82,-23.8 -187.08,0z"/>
  <path class="fil12" d="M8052.1 6304.26l39.09 0c7.76,0 13.69,-4.03 13.17,-8.94l-18.33 -167.56c-0.55,-4.91 -7.34,-8.88 -15.13,-8.88l-39.09 0c-7.74,0 -13.67,3.97 -13.17,8.88l18.35 167.56c0.54,4.91 7.32,8.94 15.12,8.94z"/>
 </g>
</svg>
