<?xml version="1.0" encoding="UTF-8"?>
<!DOCTYPE svg PUBLIC "-//W3C//DTD SVG 1.1//EN" "http://www.w3.org/Graphics/SVG/1.1/DTD/svg11.dtd">
<!-- Creator: CorelDRAW 2020 (64 Bit) -->
<svg xmlns="http://www.w3.org/2000/svg" xml:space="preserve" width="176.389mm" height="131.448mm" version="1.1" style="shape-rendering:geometricPrecision; text-rendering:geometricPrecision; image-rendering:optimizeQuality; fill-rule:evenodd; clip-rule:evenodd"
viewBox="0 0 17638.88 13144.81"
 xmlns:xlink="http://www.w3.org/1999/xlink"
 xmlns:xodm="http://www.corel.com/coreldraw/odm/2003">
 <defs>
  <style type="text/css">
   <![CDATA[
    .fil5 {fill:#FEFEFE;fill-rule:nonzero}
    .fil6 {fill:#F7F7F6;fill-rule:nonzero}
    .fil2 {fill:#EFEFEF;fill-rule:nonzero}
    .fil4 {fill:#EAEAE9;fill-rule:nonzero}
    .fil7 {fill:#E8E7E5;fill-rule:nonzero}
    .fil0 {fill:#E5E6E5;fill-rule:nonzero}
    .fil10 {fill:#E5E4E3;fill-rule:nonzero}
    .fil9 {fill:#E2E3E3;fill-rule:nonzero}
    .fil3 {fill:#E0E1E0;fill-rule:nonzero}
    .fil8 {fill:#DCDDDC;fill-rule:nonzero}
    .fil11 {fill:#DCDDDB;fill-rule:nonzero}
    .fil1 {fill:#D9DAD9;fill-rule:nonzero}
    .fil13 {fill:#CBDDF1;fill-rule:nonzero}
    .fil20 {fill:#C2C4C4;fill-rule:nonzero}
    .fil17 {fill:#904A4B;fill-rule:nonzero}
    .fil18 {fill:#8E494A;fill-rule:nonzero}
    .fil19 {fill:#742C2D;fill-rule:nonzero}
    .fil21 {fill:#743D3E;fill-rule:nonzero}
    .fil24 {fill:#919697;fill-rule:nonzero}
    .fil22 {fill:#8D9193;fill-rule:nonzero}
    .fil27 {fill:#7AA8D9;fill-rule:nonzero}
    .fil14 {fill:#6C9CD2;fill-rule:nonzero}
    .fil12 {fill:#3F79BC;fill-rule:nonzero}
    .fil16 {fill:#2C3C43;fill-rule:nonzero}
    .fil15 {fill:#2867B0;fill-rule:nonzero}
    .fil23 {fill:#252C31;fill-rule:nonzero}
    .fil25 {fill:#1D5DA9;fill-rule:nonzero}
    .fil26 {fill:#305285;fill-rule:nonzero}
   ]]>
  </style>
 </defs>
 <g id="Camada_x0020_1">
  <metadata id="CorelCorpID_0Corel-Layer"/>
  <polygon class="fil0" points="-0,11560.38 17638.88,11560.38 17638.88,11551.56 -0,11551.56 "/>
  <polygon class="fil0" points="15106.72,12128.2 15871.51,12128.2 15871.51,12119.38 15106.72,12119.38 "/>
  <polygon class="fil0" points="10955.79,11945.15 12159.08,11945.15 12159.08,11936.33 10955.79,11936.33 "/>
  <polygon class="fil0" points="13990.67,11800.61 15561.41,11800.61 15561.41,11791.79 13990.67,11791.79 "/>
  <polygon class="fil0" points="5710.67,11978.45 6103.56,11978.45 6103.56,11969.63 5710.67,11969.63 "/>
  <polygon class="fil0" points="4042.31,11978.45 5396.55,11978.45 5396.55,11969.63 4042.31,11969.63 "/>
  <polygon class="fil0" points="2339.15,11829.51 3316.18,11829.51 3316.18,11820.69 2339.15,11820.69 "/>
  <path class="fil0" d="M1549.24 8.82c-106.19,0 -192.56,86.36 -192.56,192.51l0 9575.51c0,106.17 86.37,192.54 192.56,192.54l6812.09 0c106.15,0 192.51,-86.37 192.51,-192.54l0 -9575.51c0,-106.15 -86.36,-192.51 -192.51,-192.51l-6812.09 0zm6812.09 9969.38l-6812.09 0c-111.04,0 -201.38,-90.31 -201.38,-201.36l0 -9575.51c0,-110.99 90.34,-201.33 201.38,-201.33l6812.09 0c110.99,0 201.33,90.34 201.33,201.33l0 9575.51c0,111.05 -90.34,201.36 -201.33,201.36z"/>
  <path class="fil0" d="M9179.7 8.82c-106.15,0 -192.51,86.36 -192.51,192.51l0 9575.51c0,106.17 86.36,192.54 192.51,192.54l6812.06 0c106.19,0 192.59,-86.37 192.59,-192.54l0 -9575.51c0,-106.15 -86.4,-192.51 -192.59,-192.51l-6812.06 0zm6812.06 9969.38l-6812.06 0c-111.02,0 -201.33,-90.31 -201.33,-201.36l0 -9575.51c0,-110.99 90.31,-201.33 201.33,-201.33l6812.06 0c111.06,0 201.41,90.34 201.41,201.33l0 9575.51c0,111.05 -90.35,201.36 -201.41,201.36z"/>
  <path class="fil1" d="M4056.17 4221.83c407.43,0 737.7,-330.27 737.7,-737.66 0,-407.42 -330.27,-737.69 -737.7,-737.69l-90.48 0 0 1475.35 90.48 0z"/>
  <path class="fil2" d="M3228.02 3484.17c0,407.39 330.28,737.66 737.67,737.66 407.42,0 737.69,-330.27 737.69,-737.66 0,-407.42 -330.27,-737.69 -737.69,-737.69 -407.39,0 -737.67,330.27 -737.67,737.69z"/>
  <path class="fil1" d="M3931.89 3576.88c-544.47,0 -987.46,-442.98 -987.46,-987.46l0 -589.98c0,-51.23 41.52,-92.75 92.73,-92.75 51.2,0 92.71,41.52 92.71,92.75l0 589.98c0,442.24 359.78,802.01 802.02,802.01 51.19,0 92.71,41.52 92.71,92.74 0,51.19 -41.52,92.71 -92.71,92.71z"/>
  <path class="fil2" d="M2216.58 2518.83l1641.19 0c112.47,0 194.42,-106.5 165.63,-215.23l-142.35 -537.49c-19.93,-75.14 -87.91,-127.46 -165.66,-127.46l-1356.44 0c-77.75,0 -145.75,52.32 -165.64,127.46l-142.37 537.49c-28.8,108.73 53.18,215.23 165.64,215.23z"/>
  <path class="fil1" d="M14473.66 4221.83c407.42,0 737.69,-330.27 737.69,-737.66 0,-407.42 -330.27,-737.69 -737.69,-737.69l-90.49 0 0 1475.35 90.49 0z"/>
  <path class="fil2" d="M13645.51 3484.17c0,407.39 330.27,737.66 737.66,737.66 407.42,0 737.69,-330.27 737.69,-737.66 0,-407.42 -330.27,-737.69 -737.69,-737.69 -407.39,0 -737.66,330.27 -737.66,737.69z"/>
  <path class="fil1" d="M14349.37 3576.88c-544.47,0 -987.46,-442.98 -987.46,-987.46l0 -589.98c0,-51.23 41.52,-92.75 92.71,-92.75 51.23,0 92.75,41.52 92.75,92.75l0 589.98c0,442.24 359.76,802.01 802,802.01 51.19,0 92.71,41.52 92.71,92.74 0,51.19 -41.52,92.71 -92.71,92.71z"/>
  <path class="fil2" d="M12634.06 2518.83l1641.16 0c112.46,0 194.45,-106.5 165.66,-215.23l-142.34 -537.49c-19.93,-75.14 -87.92,-127.46 -165.67,-127.46l-1356.46 0c-77.72,0 -145.74,52.32 -165.63,127.46l-142.35 537.49c-28.82,108.73 53.17,215.23 165.63,215.23z"/>
  <polygon class="fil3" points="4726.56,9203.99 5263.03,9203.99 5263.03,7125.1 4726.56,7125.1 "/>
  <polygon class="fil4" points="3272.06,9203.99 5052.52,9203.99 5321.41,6770.79 3540.94,6770.79 "/>
  <polygon class="fil2" points="3079.22,9203.99 4918.29,9203.99 5187.18,6770.79 3348.1,6770.79 "/>
  <polygon class="fil5" points="4785.4,9012.22 5011.92,6962.53 3480.98,6962.53 3254.48,9012.22 "/>
  <path class="fil2" d="M4469.24 8515.42l9.24 -83.54c56.8,-514.21 -264.26,-972.54 -681.32,-972.54l-9.24 83.54c-56.83,514.24 264.27,972.54 681.32,972.54l0 0z"/>
  <polygon class="fil3" points="2084.36,11551.56 3666.18,11551.56 3666.18,9203.99 2084.36,9203.99 "/>
  <polygon class="fil4" points="2243.46,11551.56 2084.36,11551.56 2084.36,11098.97 2410.29,11098.97 "/>
  <polygon class="fil3" points="6517.72,11551.56 8099.54,11551.56 8099.54,9203.99 6517.72,9203.99 "/>
  <polygon class="fil4" points="2084.36,11273.84 6656.57,11273.84 6656.57,9203.99 2084.36,9203.99 "/>
  <polygon class="fil4" points="6497.47,11551.56 6656.57,11551.56 6656.57,11098.97 6330.64,11098.97 "/>
  <polygon class="fil3" points="2207.79,10168.67 6533.12,10168.67 6533.12,9333.47 2207.79,9333.47 "/>
  <path class="fil4" d="M4082 9877.95l576.89 0c250.58,0 490.15,-103.05 662.52,-284.95l-1901.91 0c172.35,181.9 411.92,284.95 662.5,284.95z"/>
  <polygon class="fil3" points="2207.79,11138.84 6533.12,11138.84 6533.12,10303.64 2207.79,10303.64 "/>
  <path class="fil4" d="M4082 10848.11l576.89 0c250.58,0 490.15,-103.01 662.52,-284.94l-1901.91 0c172.35,181.93 411.92,284.94 662.5,284.94z"/>
  <path class="fil3" d="M6366.94 9108.25l40.85 0c-0.42,-84.21 0.18,-297.74 4.27,-787.12 7.37,-887.02 21.45,-941.1 21.45,-941.1l-97.3 409.47c-61.66,453.46 17.85,909.11 30.73,1318.75z"/>
  <path class="fil3" d="M6286.15 7728.51c-140.05,-166.93 -439.24,-215.51 -745.59,-257.03 -120.27,-16.34 316.05,258.51 529.3,453.71 165.7,151.65 271.61,193.56 317.12,344.69 23.67,-188.45 19.82,-397.54 -100.83,-541.37z"/>
  <path class="fil3" d="M6471.93 8026.82c140.01,-166.9 439.24,-215.48 745.59,-257.03 120.26,-16.3 -316.05,258.55 -529.34,453.74 -165.67,151.62 -271.61,193.53 -317.08,344.66 -23.71,-188.45 -19.86,-397.54 100.83,-541.37z"/>
  <path class="fil3" d="M6411.95 7340.81c104.99,-199.5 369.22,-387.32 665.69,-458.58 116.42,-27.97 -269.62,368.41 -416.34,623.96 -113.99,198.54 -265.15,431.77 -288.65,599.3 -35.45,-331.93 -65.68,-565.19 39.3,-764.68z"/>
  <path class="fil4" d="M6399.57 9203.99c-125.09,0 -228.46,-62.68 -235.66,-142.91l-20.84 -137.08 513.01 0 -20.85 137.08c-7.2,80.23 -110.56,142.91 -235.66,142.91z"/>
  <polygon class="fil4" points="6689.27,8976.74 6109.87,8976.74 6093.25,8824.05 6705.85,8824.05 "/>
  <polygon class="fil3" points="5981,6059.66 11632.7,6059.66 11632.7,904.48 5981,904.48 "/>
  <polygon class="fil2" points="5853.82,6059.66 11577.42,6059.66 11577.42,904.48 5853.82,904.48 "/>
  <polygon class="fil6" points="6082.11,5828.73 11349.14,5828.73 11349.14,1135.41 6082.11,1135.41 "/>
  <polygon class="fil5" points="10702.85,5828.73 8629.87,1135.41 7925.76,1135.41 9998.74,5828.73 "/>
  <polygon class="fil5" points="9799.14,5828.73 7726.16,1135.41 7241.33,1135.41 9314.28,5828.73 "/>
  <polygon class="fil3" points="7765.46,5828.73 8037.84,5828.73 8037.84,1135.41 7765.46,1135.41 "/>
  <polygon class="fil3" points="9575.87,5828.73 9848.23,5828.73 9848.23,1135.41 9575.87,1135.41 "/>
  <polygon class="fil2" points="7644.42,5975.28 7988.72,5975.28 7988.72,963.68 7644.42,963.68 "/>
  <polygon class="fil2" points="9454.86,5975.28 9799.14,5975.28 9799.14,963.68 9454.86,963.68 "/>
  <polygon class="fil3" points="6082.11,5828.73 6106.35,5828.73 6106.35,1135.41 6082.11,1135.41 "/>
  <path class="fil3" d="M5757.94 607.48l6123.02 0c16.19,0 29.42,13.27 29.42,29.46 0,16.19 -13.23,29.42 -29.42,29.42l-6123.02 0c-16.19,0 -29.42,-13.23 -29.42,-29.42 0,-16.19 13.23,-29.46 29.42,-29.46z"/>
  <path class="fil3" d="M11632.7 801.83l0 0c21.87,0 39.76,-17.93 39.76,-39.76l0 -85.41c0,-21.84 -17.89,-39.72 -39.76,-39.72 -21.87,0 -39.76,17.88 -39.76,39.72l0 85.41c0,21.83 17.89,39.76 39.76,39.76z"/>
  <path class="fil3" d="M6201.98 801.83c21.87,0 39.76,-17.89 39.76,-39.76l0 -85.41c0,-21.84 -17.89,-39.72 -39.76,-39.72 -21.84,0 -39.72,17.88 -39.72,39.72l0 85.41c0,21.87 17.88,39.76 39.72,39.76z"/>
  <path class="fil7" d="M5853.82 2469.51l-86.46 0 0 -1803.15 396.24 0c-0.88,3.32 -1.34,6.74 -1.34,10.3l0 85.41c0,21.87 17.88,39.76 39.72,39.76 21.87,0 39.76,-17.89 39.76,-39.76l0 -85.41c0,-3.56 -0.46,-6.98 -1.34,-10.3l2313.44 0 0 238.12 -2700.02 0 0 1565.03zm5632.98 -1565.03l-2499.6 0 0 -238.12 2499.6 0 0 238.12zm-2508.42 0l-415.72 0 0 -238.12 415.72 0 0 238.12z"/>
  <polygon class="fil8" points="8553.84,904.48 8562.66,904.48 8562.66,666.37 8553.84,666.37 "/>
  <polygon class="fil8" points="8978.37,904.48 8987.19,904.48 8987.19,666.37 8978.37,666.37 "/>
  <path class="fil9" d="M11486.79 3972.7c-34.29,-5.54 -72.92,-11.33 -114.47,-16.72 -0.6,-2.37 -1.24,-4.7 -1.87,-7.06 -2.19,-7.83 -9.32,-12.98 -17.04,-12.98 -1.41,0 -2.86,0.18 -4.27,0.53l0 -2801.06 -1550 0 0 -171.69 -344.28 0 0 171.69 -1466.14 0 0 -171.69 -344.31 0 0 171.69 -1562.31 0 0 1334.1 -228.29 0 0 -1565.03 5632.98 0 0 3068.22z"/>
  <path class="fil10" d="M9454.86 4674.02l-115.21 0 -19.69 -382.02 134.9 305.36 0 76.66zm598.35 -316.05l-204.96 -464.05 0 -2758.51 -49.11 0 1550 0 0 2801.06c-0.14,0.03 -0.25,0.07 -0.39,0.1 -7.09,1.94 -11.99,7.98 -12.84,14.86 -64.59,-7.73 -134.69,-14.33 -205.28,-17.71 -112.96,-5.44 -214.56,-9.85 -313.16,-9.85 -77.72,0 -153.57,2.72 -231.81,9.88 -68.48,6.25 -139.63,15.31 -206.03,25.01 -1.58,-0.81 -3.1,-1.58 -4.65,-2.29 -13.62,-6.46 -26.21,-9.7 -37.64,-9.7 -7.76,0 -15,1.52 -21.66,4.51 -7.41,3.36 -11.4,11.19 -10.2,18.84 -125.38,20.08 -219.32,39.3 -219.32,39.3 0,0 -45.51,16.05 -32.95,348.55zm-598.35 -1354.74l-825 -1867.82 -641.14 0 1466.14 0 0 1867.82zm-939.87 -533.72l-199.56 0 -277.6 -628.47 0 -451.91 477.16 1080.38zm-870.58 0l-1538.08 0 0 -1334.1 -24.23 0 0 1334.1 0 -1334.1 1562.31 0 -403.09 0 403.09 912.64 0 421.46z"/>
  <path class="fil0" d="M10075.4 4674.02l-227.15 0 0 -780.1 204.96 464.05c3.17,83.71 10.02,187.43 22.19,316.05zm-620.54 -76.66l-134.9 -305.36 -80.64 -1564.96c-7.34,-142.24 -128.56,-257.53 -270.76,-257.53l-453.57 0 -477.16 -1080.38 0 -253.72 -49.11 0 641.14 0 825 1867.82 0 1594.13z"/>
  <path class="fil0" d="M8315.44 2469.51l-277.6 0 0 -628.47 277.6 628.47zm-671.02 -421.46l-403.09 -912.64 403.09 0 0 912.64z"/>
  <polygon class="fil11" points="8037.84,2469.51 7988.73,2469.51 7988.73,1135.41 8037.84,1135.41 "/>
  <polygon class="fil11" points="9848.25,4674.02 9799.14,4674.02 9799.14,1135.41 9848.25,1135.41 "/>
  <polygon class="fil9" points="7988.73,2469.51 7644.42,2469.51 7644.42,963.72 7988.73,963.72 "/>
  <polygon class="fil9" points="9799.14,4674.02 9454.86,4674.02 9454.86,963.72 9799.14,963.72 "/>
  <polygon class="fil11" points="6082.11,2469.51 6106.35,2469.51 6106.35,1135.41 6082.11,1135.41 "/>
  <path class="fil11" d="M11486.79 666.36l-5246.4 0c-4.59,-16.9 -20.11,-29.42 -38.42,-29.42l5284.82 0 0 29.42zm-5323.2 0l-396.24 0 0 -29.42 434.62 0c-18.31,0 -33.8,12.52 -38.38,29.42z"/>
  <path class="fil11" d="M6201.98 801.83c-21.84,0 -39.72,-17.89 -39.72,-39.76l0 -85.41c0,-3.56 0.46,-6.98 1.34,-10.3 4.58,-16.9 20.07,-29.42 38.38,-29.42l0 0c18.31,0 33.83,12.52 38.42,29.42 0.88,3.32 1.34,6.74 1.34,10.3l0 85.41c0,21.87 -17.89,39.76 -39.76,39.76z"/>
  <path class="fil6" d="M12004.53 8068.7l-986.05 0c-104.85,0 -189.87,-84.99 -189.87,-189.87l0 -456.39c0,-104.88 85.02,-189.86 189.87,-189.86l986.05 0c104.84,0 189.86,84.98 189.86,189.86l0 456.39c0,104.88 -85.02,189.87 -189.86,189.87z"/>
  <path class="fil3" d="M12130.65 7257.17l-1238.29 0c-35.21,0 -63.75,-28.54 -63.75,-63.75l0 -51.54c0,-35.21 28.54,-63.75 63.75,-63.75l1238.29 0c35.2,0 63.74,28.54 63.74,63.75l0 51.54c0,35.21 -28.54,63.75 -63.74,63.75z"/>
  <path class="fil4" d="M10848.72 8995.89c0,0 17.89,587.83 702.98,587.83 685.1,0 702.98,-587.83 702.98,-587.83l-1405.96 0z"/>
  <path class="fil4" d="M12410.86 8995.89c0,0 17.88,587.83 702.98,587.83 685.13,0 702.98,-587.83 702.98,-587.83l-1405.96 0z"/>
  <path class="fil4" d="M13477.8 8068.7l-1355.06 0c-144.1,0 -260.91,-116.81 -260.91,-260.92l0 -693c0,-144.11 116.81,-260.91 260.91,-260.91l1355.06 0c144.11,0 260.91,116.8 260.91,260.91l0 693c0,144.11 -116.8,260.92 -260.91,260.92z"/>
  <path class="fil2" d="M13651.12 6887.7l-1701.69 0c-48.41,0 -87.6,-39.23 -87.6,-87.59l0 -70.88c0,-48.4 39.19,-87.59 87.6,-87.59l1701.69 0c48.4,0 87.59,39.19 87.59,87.59l0 70.88c0,48.36 -39.19,87.59 -87.59,87.59z"/>
  <polygon class="fil3" points="10332.72,11551.52 10510.44,11551.52 10510.44,8636.06 10332.72,8636.06 "/>
  <polygon class="fil3" points="14503.68,8636.07 15466.4,8636.07 15466.4,8068.7 14503.68,8068.7 "/>
  <polygon class="fil2" points="9717.15,8636.07 14503.64,8636.07 14503.64,8068.7 9717.15,8068.7 "/>
  <polygon class="fil3" points="14503.68,10151.13 15466.4,10151.13 15466.4,9583.76 14503.68,9583.76 "/>
  <polygon class="fil2" points="9717.15,10151.13 14503.68,10151.13 14503.68,9583.76 9717.15,9583.76 "/>
  <polygon class="fil3" points="15119.24,11551.52 15296.96,11551.52 15296.96,8636.06 15119.24,8636.06 "/>
  <polygon class="fil2" points="14325.91,11551.52 14503.68,11551.52 14503.68,8636.06 14325.91,8636.06 "/>
  <polygon class="fil2" points="9717.15,11551.52 9894.89,11551.52 9894.89,8636.06 9717.15,8636.06 "/>
  <path class="fil2" d="M15659.41 12745.33c0,220.62 -3062.36,399.48 -6839.97,399.48 -3777.62,0 -6839.98,-178.86 -6839.98,-399.48 0,-220.6 3062.36,-399.46 6839.98,-399.46 3777.61,0 6839.97,178.86 6839.97,399.46z"/>
  <path class="fil12" d="M9186.82 10955.25l-4500.52 0c-148.7,0 -275.45,-120.55 -283.11,-269.24l-402.8 -7815.79c-7.66,-148.73 106.68,-269.24 255.34,-269.24l4500.53 0c148.69,0 275.45,120.51 283.14,269.24l402.76 7815.79c7.69,148.69 -106.64,269.24 -255.34,269.24z"/>
  <path class="fil13" d="M9186.82 10955.25l-4500.52 0c-87.85,0 -168.03,-42.04 -220.53,-107.14 -36.37,-45.08 -59.44,-101.2 -62.58,-162.1l-333.52 -6471.46 -69.28 -1344.33c-0.25,-4.65 -0.35,-9.28 -0.35,-13.86 -0.14,-142.28 111.65,-255.38 255.69,-255.38l190.71 0c-19.05,37.26 -28.79,80.26 -26.42,126.05l385.23 7475c7.34,142.24 128.55,257.53 270.79,257.53l4304.28 0c17.18,0 33.87,-1.68 49.92,-4.89l11.92 231.34c0.25,4.66 0.39,9.28 0.39,13.87 0.11,142.28 -111.69,255.37 -255.73,255.37z"/>
  <polygon class="fil12" points="7814.28,2381.32 8312.12,2381.32 8312.12,2346.04 7814.28,2346.04 "/>
  <polygon class="fil12" points="7459.56,2381.32 7641.85,2381.32 7641.85,2346.04 7459.56,2346.04 "/>
  <path class="fil12" d="M9380.32 10459.56l-4304.28 0c-142.24,0 -263.45,-115.29 -270.79,-257.53l-385.23 -7475c-7.3,-142.24 102.02,-257.53 244.23,-257.53l4304.31 0c142.2,0 263.42,115.29 270.76,257.53l385.23 7475c7.34,142.24 -102.02,257.53 -244.23,257.53z"/>
  <path class="fil5" d="M4664.26 2650.31c-23.89,0 -38.74,10.37 -46.99,19.02 -8.29,8.74 -17.92,24.23 -16.69,48.4l385.27 7475.04c2.33,45.83 44.48,86 90.2,86l4304.28 0c23.92,0 38.74,-10.34 46.96,-19 8.32,-8.72 17.95,-24.21 16.72,-48.41l-385.24 -7475.01c-2.36,-45.82 -44.52,-86.04 -90.2,-86.04l-4304.31 0zm4716.07 7637.28l-4304.28 0c-50.16,0 -96.45,-44.1 -99.02,-94.37l-385.27 -7475.07c-1.38,-27.27 9.63,-44.91 19.12,-54.86 9.42,-9.95 26.35,-21.8 53.38,-21.8l4304.31 0c50.13,0 96.41,44.1 99.02,94.4l385.24 7475.01c1.37,27.3 -9.63,44.94 -19.12,54.93 -9.42,9.91 -26.32,21.76 -53.38,21.76z"/>
  <path class="fil14" d="M6984.76 5736.06c-719.63,0 -1333.08,-583.39 -1370.19,-1303.02 -37.08,-719.63 516.25,-1303.02 1235.89,-1303.02 719.63,0 1333.07,583.39 1370.15,1303.02 37.11,719.63 -516.22,1303.02 -1235.85,1303.02z"/>
  <path class="fil5" d="M7971.83 4433.04c9.38,182.07 -28.01,353.02 -101.53,502.18 -160.9,328.57 -497.59,552.06 -898.35,552.06 -400.79,0 -760.52,-223.49 -955.28,-552.06 -88.9,-149.16 -143.9,-320.11 -153.29,-502.18 -30.02,-582.33 417.59,-1054.21 999.88,-1054.21 582.33,0 1078.55,471.88 1108.57,1054.21z"/>
  <path class="fil12" d="M7870.3 4935.22c-160.9,328.57 -497.59,552.06 -898.35,552.06 -400.79,0 -760.52,-223.49 -955.28,-552.06 256.25,-177.31 569.41,-280.81 912.35,-280.81 342.9,0 666.75,103.5 941.28,280.81z"/>
  <path class="fil12" d="M7368.62 4072.39c13.37,259.33 -186.02,469.59 -445.39,469.59 -259.36,0 -480.44,-210.26 -493.78,-469.59 -13.37,-259.36 186.02,-469.61 445.38,-469.61 259.36,0 480.45,210.25 493.79,469.61z"/>
  <path class="fil5" d="M8763.46 7551.88l-3370.22 0c-60.19,0 -111.48,-48.79 -114.59,-108.98l-25.5 -495.23c-3.11,-60.18 43.14,-108.97 103.33,-108.97l3370.22 0c60.19,0 111.48,48.79 114.59,108.97l25.54 495.23c3.07,60.19 -43.18,108.98 -103.37,108.98z"/>
  <path class="fil15" d="M7731.34 6566.74l-1407.55 0c-60.18,0 -111.47,-48.79 -114.58,-108.97l-5.4 -105.16c-3.1,-60.19 43.15,-108.94 103.33,-108.94l1407.59 0c60.18,0 111.47,48.75 114.58,108.94l5.4 105.16c3.1,60.18 -43.18,108.97 -103.37,108.97z"/>
  <path class="fil15" d="M8254.79 9925.53l-2108.23 0c-102.48,0 -189.83,-83.04 -195.12,-185.55l-12.53 -243.14c-5.29,-102.49 73.52,-185.57 176,-185.57l2108.24 0c102.48,0 189.83,83.08 195.12,185.57l12.52 243.14c5.3,102.51 -73.51,185.55 -176,185.55z"/>
  <path class="fil5" d="M8824.98 8745.5l-3370.23 0c-60.18,0 -111.48,-48.79 -114.58,-108.97l-25.54 -495.23c-3.11,-60.19 43.18,-108.98 103.36,-108.98l3370.23 0c60.18,0 111.48,48.79 114.58,108.98l25.51 495.23c3.1,60.18 -43.15,108.97 -103.33,108.97z"/>
  <path class="fil16" d="M5821.83 7195.29c3.42,66.6 -47.81,120.61 -114.41,120.61 -66.64,0 -123.44,-54.01 -126.86,-120.61 -3.42,-66.64 47.8,-120.65 114.41,-120.65 66.64,0 123.4,54.01 126.86,120.65z"/>
  <path class="fil16" d="M6192.49 7195.29c3.42,66.6 -47.8,120.61 -114.41,120.61 -66.64,0 -123.43,-54.01 -126.85,-120.61 -3.43,-66.64 47.8,-120.65 114.4,-120.65 66.64,0 123.44,54.01 126.86,120.65z"/>
  <path class="fil16" d="M6563.15 7195.29c3.43,66.6 -47.8,120.61 -114.4,120.61 -66.64,0 -123.4,-54.01 -126.86,-120.61 -3.42,-66.64 47.8,-120.65 114.44,-120.65 66.6,0 123.4,54.01 126.82,120.65z"/>
  <path class="fil16" d="M6933.82 7195.29c3.45,66.6 -47.77,120.61 -114.41,120.61 -66.6,0 -123.4,-54.01 -126.82,-120.61 -3.46,-66.64 47.76,-120.65 114.4,-120.65 66.61,0 123.41,54.01 126.83,120.65z"/>
  <path class="fil16" d="M5883.32 8388.91c3.45,66.64 -47.77,120.65 -114.41,120.65 -66.6,0 -123.4,-54.01 -126.82,-120.65 -3.46,-66.6 47.76,-120.61 114.4,-120.61 66.61,0 123.4,54.01 126.83,120.61z"/>
  <path class="fil16" d="M6254.01 8388.91c3.43,66.64 -47.8,120.65 -114.44,120.65 -66.6,0 -123.4,-54.01 -126.82,-120.65 -3.46,-66.6 47.8,-120.61 114.41,-120.61 66.64,0 123.4,54.01 126.85,120.61z"/>
  <path class="fil16" d="M6624.68 8388.91c3.42,66.64 -47.8,120.65 -114.41,120.65 -66.64,0 -123.43,-54.01 -126.86,-120.65 -3.42,-66.6 47.8,-120.61 114.41,-120.61 66.64,0 123.44,54.01 126.86,120.61z"/>
  <path class="fil16" d="M6995.34 8388.91c3.42,66.64 -47.8,120.65 -114.4,120.65 -66.64,0 -123.41,-54.01 -126.86,-120.65 -3.43,-66.6 47.8,-120.61 114.4,-120.61 66.64,0 123.44,54.01 126.86,120.61z"/>
  <path class="fil16" d="M7366.01 8388.91c3.45,66.64 -47.77,120.65 -114.41,120.65 -66.61,0 -123.4,-54.01 -126.86,-120.65 -3.42,-66.6 47.8,-120.61 114.44,-120.61 66.61,0 123.4,54.01 126.83,120.61z"/>
  <path class="fil16" d="M7736.7 8388.91c3.43,66.64 -47.8,120.65 -114.44,120.65 -66.6,0 -123.4,-54.01 -126.82,-120.65 -3.46,-66.6 47.77,-120.61 114.41,-120.61 66.6,0 123.4,54.01 126.85,120.61z"/>
  <path class="fil17" d="M11748.59 4292.32c8.85,13.08 13.33,20.28 19.15,29.7l15.77 26.39c10.23,17.46 19.19,34.89 28.23,52.31 17.63,34.89 34.32,69.82 49.24,105.1 30.24,70.55 55.04,142.59 76.49,215.12 43.46,144.99 70.02,293.58 83.64,442.21l2.75 27.87c0.5,3.98 0.85,10.26 1.13,16.82l0.78 18.98c0.45,25.09 -0.78,49.89 -4.27,73.35 -6.63,47.3 -19.37,90.98 -35,131.37 -31.71,80.43 -75.28,148.77 -122.02,210.96 -95.68,123.86 -204.3,222.99 -328.4,310.87l-97.19 -113.81c87.2,-100.86 171.69,-212.62 234.27,-324.2 31.93,-55.63 56.34,-113.03 71.51,-166.51 7.13,-26.74 10.97,-52.46 11.57,-75.64 0.82,-11.71 -0.03,-22.54 -1.16,-32.8l-1.09 -7.52c-0.25,-2.29 -0.53,-4.87 -1.45,-9.63l-4.41 -24.84c-23.07,-132.39 -54.57,-262.5 -95.88,-388.16 -20.29,-63 -45.37,-123.89 -70.81,-183.72 -12.59,-30.02 -26.53,-59.13 -40.78,-87.53l-21.87 -41.45 -10.87 -19.65 -8.96 -15.41 249.63 -170.18z"/>
  <path class="fil18" d="M11419.27 5955.63l127.74 269.7 101.32 -228.08c0,0 -89.78,-197.55 -211.28,-179.45l-17.78 137.83z"/>
  <polygon class="fil18" points="11638.56,6238.7 11739.98,6072.4 11648.33,5997.25 11547.01,6225.33 "/>
  <path class="fil12" d="M11122.55 12441.79c-51.47,10.3 -90.14,8.5 -105.09,-5.14 -6.39,-5.79 -8.72,-13.95 -7.2,-24.88 0.85,-5.93 3.56,-7.87 5.82,-8.89 18.17,-8.33 69.89,16.79 106.47,38.91zm-58.24 20.6c27.3,0 57.15,-5.64 78.03,-10.61l5.29 -5.58 -3.07 -7.06c-10.09,-6.67 -99.87,-64.59 -134.23,-49.03 -5.43,2.47 -12.28,7.87 -13.93,19.68 -2.19,15.67 1.69,28.19 11.6,37.22 12.6,11.46 33.59,15.38 56.31,15.38z"/>
  <path class="fil12" d="M11090.45 12332.22c5.75,0 10.83,2.01 15.48,6.13 19.16,16.98 25.76,64.74 27.38,93.03 -28.12,-22.41 -61.63,-70.31 -57.57,-90.63 0.67,-3.31 2.57,-7.26 11.53,-8.35l3.18 -0.18zm50.27 119.76l3.53 -0.95 3.49 -6.03c0,-3.63 -0.43,-88.7 -32.53,-117.12 -8.54,-7.58 -18.55,-10.77 -29.63,-9.35 -17.53,2.11 -22.3,13.12 -23.57,19.5 -6.66,33.31 47.06,97.06 75.29,113.04l3.42 0.91z"/>
  <path class="fil12" d="M10566.89 12340.79c15.73,-17.05 85.51,-21.62 137.94,-20.78 -54.97,37.22 -100.33,55 -123.34,47.83 -8.07,-2.49 -13.51,-8.07 -16.68,-16.96 -1.24,-3.49 -0.92,-6.21 1.02,-8.85l1.06 -1.24zm164.25 -22.37l1.59 -6.73 -6.39 -5.01c-14.64,-0.71 -141.42,-5.97 -170,24.9l-1.73 2.08c-4.76,6.43 -5.82,14 -3,21.88 4.7,13.18 13.34,21.84 25.72,25.68 41.06,12.76 113.35,-33.31 152.79,-61.89l1.02 -0.91z"/>
  <path class="fil12" d="M10604.46 12247.69l6.7 -5.11c9.21,-5.41 18.88,-6.63 29.53,-3.78 30.66,8.29 59.51,47.49 72.28,67.1 -41.69,-4.76 -105.62,-30.55 -111.01,-50.17 -0.36,-1.17 -1.13,-4.09 2.5,-8.04zm126.68 70.73l0.92 -1.24 0.03 -6.94c-1.65,-2.92 -41.06,-72.36 -87.77,-84.94 -14.25,-3.85 -27.83,-2.1 -40.25,5.2 -16.79,9.86 -17.74,21.21 -15.63,28.94 9.03,32.7 98.96,61.49 137.62,61.24l5.08 -2.26z"/>
  <path class="fil18" d="M11119.52 3258.85c-34.37,175.37 -111.59,557.85 11.11,674.87 0,0 -47.94,177.87 -373.77,177.87 -358.25,0 -171.2,-177.84 -171.2,-177.84 195.54,-46.71 190.5,-191.77 156.42,-328.01l377.44 -346.89z"/>
  <path class="fil16" d="M10522.47 2845.33l6.28 -1.49c6.88,-3.45 9.71,-11.85 6.25,-18.8 -34.68,-69.21 -98.82,-77.26 -101.53,-77.54 -7.66,-0.95 -14.61,4.62 -15.49,12.31 -0.88,7.66 4.62,14.57 12.24,15.49 2.12,0.25 52.07,7.06 79.73,62.3 2.47,4.9 7.41,7.73 12.52,7.73z"/>
  <path class="fil19" d="M10415.65 2998.57c0,0 -52.74,96.88 -103.01,140.55 27.62,32.98 82.38,26.25 82.38,26.25l20.63 -166.8z"/>
  <path class="fil16" d="M10441.86 2960.54c-2.92,23.68 -17.85,41.28 -33.3,39.37 -15.48,-1.9 -25.64,-22.64 -22.72,-46.28 2.93,-23.67 17.85,-41.28 33.31,-39.37 15.45,1.9 25.61,22.65 22.71,46.28z"/>
  <path class="fil16" d="M10425.81 2916.41l-54.78 -23.39c0,0 23.67,47.98 54.78,23.39z"/>
  <polygon class="fil18" points="11042.5,12251.4 10754.74,12318.6 10579.87,11656.72 10867.63,11589.51 "/>
  <polygon class="fil18" points="11484.36,12444.97 11188.87,12444.97 11212.05,11760.67 11507.54,11760.67 "/>
  <path class="fil16" d="M11165.45 12410.78l332 0c12.06,0 21.87,8.39 23.56,20.17l37.82 262.66c3.95,27.25 -19.51,53.05 -47.34,52.56 -115.75,-2.01 -171.52,-8.78 -317.54,-8.78 -89.82,0 -221.01,9.3 -345.05,9.3 -121.32,0 -130.63,-122.62 -78.99,-133.74 231.57,-49.8 268.15,-118.5 346.15,-184.01 14.07,-11.81 31.71,-18.16 49.39,-18.16z"/>
  <path class="fil16" d="M10729.24 12274.51l301.59 -138.72c10.97,-5.04 23.39,-1.56 29.88,8.46l144.11 222.82c14.95,23.11 4.44,56.35 -21.06,67.56 -105.98,46.53 -159.49,63.67 -292.14,124.7 -81.6,37.54 -246.45,123.65 -359.13,175.48 -110.2,50.68 -169.97,-56.84 -127.67,-88.48 189.55,-142.02 243.67,-242.54 287.13,-334.64 7.87,-16.62 21.24,-29.79 37.29,-37.18z"/>
  <polygon class="fil20" points="10957.8,11930.86 10909.3,11747.2 10909.44,11747.13 10957.94,11930.82 "/>
  <polygon class="fil21" points="10673.6,12011.46 10630.49,11848.21 10909.3,11747.2 10957.8,11930.86 "/>
  <polygon class="fil20" points="11495.79,12113.6 11495.58,12113.6 11497.9,12045.3 11498.08,12045.3 "/>
  <polygon class="fil21" points="11495.58,12113.6 11200.16,12113.6 11202.45,12045.3 11497.9,12045.3 "/>
  <path class="fil16" d="M11640.25 4000.85c122.73,26.92 253.86,468.52 253.86,468.52l-347.1 369.08c0,0 -287.97,-414.76 -229.3,-567.3 61.1,-158.82 177.44,-302.09 322.54,-270.3z"/>
  <path class="fil22" d="M11519.39 4797.32c-9.35,-14.47 -20.64,-32.21 -33.09,-52.43 0.03,-0.1 0.03,-0.17 0.07,-0.24 12.42,20.21 23.71,37.92 33.09,52.42 0,0.07 -0.04,0.18 -0.07,0.25z"/>
  <path class="fil23" d="M11519.46 4797.07c-9.38,-14.5 -20.67,-32.21 -33.09,-52.42 14.32,-85.06 31.5,-177.34 51.96,-278.7 21.98,119.88 0.67,252.8 -18.87,331.12z"/>
  <path class="fil16" d="M10086.16 4009.42c0,0 -140.76,49.6 141.22,1783.47 476.21,0 968.37,0 1200.11,0 -20.14,-488.42 -20.71,-789.62 212.76,-1792.04 0,0 -251.46,-54.68 -509.62,-67.13 -201.97,-9.74 -367.42,-16.2 -544.97,0.03 -234.07,21.34 -499.5,75.67 -499.5,75.67z"/>
  <path class="fil24" d="M10103.37 4933.1c-11.53,-94.47 -20.56,-179.1 -27.62,-255.13 7.27,76.1 16.34,160.76 27.62,255.13z"/>
  <path class="fil23" d="M10106.87 4961.36c-1.17,-9.53 -2.33,-18.95 -3.5,-28.26 -11.28,-94.37 -20.35,-179.03 -27.62,-255.13 -0.07,-1.02 -0.17,-2.04 -0.28,-3.07 48.33,-70.55 111.83,-149.58 180.62,-200.69 29.42,146.89 -50.94,398.64 -149.22,487.15z"/>
  <path class="fil17" d="M10203.56 4412.05c-65.3,164.92 -137.19,321.66 -218.12,478.19 -80.79,156.31 -167.04,309.91 -281.69,458.43l-22.58 27.8 -11.25 13.83c-3.88,4.69 -6.92,8.78 -13.16,15.21 -21.8,24.05 -45.44,44.69 -69.68,61.98 -48.57,34.64 -98.81,56.69 -147.49,73.66 -97.51,32.81 -191.74,44.45 -283.64,49.95 -184.39,7.48 -358.84,-9.59 -534.77,-47.48l19.58 -148.35c81.07,0.43 166.12,-1.41 248.11,-6.56 82.41,-4.3 163.97,-13.12 242.21,-27.09 78.07,-13.09 153.6,-32.95 216.57,-60.36 31.08,-13.94 58.11,-30.62 77.97,-47.52 10.02,-8.43 17.85,-17.04 24.13,-25.26 1.34,-1.2 4.48,-5.85 7.19,-9.63l8.22 -11.64 16.51 -23.18c86.93,-128.59 163.23,-277.99 236.12,-427.32 71.58,-150 140.65,-305.57 205.46,-457.37l280.31 112.71z"/>
  <path class="fil16" d="M10086.16 4009.42c-146.86,35.81 -327.59,439.03 -327.59,439.03l304.83 447.86c0,0 405.88,-510.93 357.62,-667.07 -50.28,-162.6 -156.67,-263.24 -334.86,-219.82z"/>
  <path class="fil18" d="M8725.29 5417.25l-254.28 -117.4 -25.54 252.76c0,0 212.51,62.55 317.29,-1.51l-37.47 -133.85z"/>
  <polygon class="fil18" points="8318.72,5274.31 8294.45,5466.78 8445.47,5552.61 8471.01,5299.85 "/>
  <path class="fil18" d="M11247.22 2977.76c-53.8,288.29 -70.41,411.48 -235.58,542.43 -248.43,196.96 -590.8,67.87 -624.21,-230.68 -30.13,-268.75 62.9,-695.08 361.56,-775.48 294.25,-79.23 551.99,175.44 498.23,463.73z"/>
  <path class="fil16" d="M10613.95 3038.47c-16.48,147 -22.83,528.96 300.11,540.95 395.78,14.71 514.24,-323.39 478.96,-458.61 205.78,-167.57 235.55,-455.65 4.17,-676.17 -231.39,-220.48 -740.84,-97.22 -883.18,117.58 -176.39,266.28 99.94,476.25 99.94,476.25z"/>
  <path class="fil12" d="M11010.22 2530.3c-19.12,-155.05 -4.26,-262.05 140.76,-262.05 145.03,0 343.47,52.71 416.21,201.26 72.78,148.59 78.63,380.83 -124.21,357.3 -202.85,-23.5 -409.86,-110.88 -432.76,-296.51z"/>
  <path class="fil16" d="M11235.16 2493.08c-34.54,-185 130.21,-705.45 532.2,-739.28 186.19,-15.67 272.41,184.71 174.9,217.73 175.9,-2.15 289.28,231 124.78,266.14 130.07,83.08 97.69,254 -87.52,337.78 -136.56,61.81 -696.53,173.53 -744.36,-82.37z"/>
  <path class="fil16" d="M11664.59 2691.66c-129.33,0.03 -264.58,-18.98 -348.37,-75.11 -50.87,-34.08 -78.77,-79.23 -82.93,-134.27 -0.36,-4.87 3.28,-9.1 8.11,-9.45 5.15,-0.39 9.1,3.28 9.49,8.15 3.7,49.32 29,90.03 75.14,120.93 159.63,106.89 528.6,72.28 644.21,34.54 99.45,-32.42 166.79,-95.32 180.16,-168.24 9.81,-53.48 -11.18,-104.14 -59.05,-142.7 -3.81,-3.07 -4.41,-8.64 -1.38,-12.42 3.07,-3.77 8.64,-4.37 12.42,-1.34 52.39,42.19 76.2,100.37 65.37,159.63 -14.57,79.38 -86.36,147.36 -192.05,181.86 -60.54,19.75 -182.92,38.42 -311.12,38.42z"/>
  <path class="fil18" d="M10523.96 2999.53c-35.46,49.07 -45.62,110.06 -37.82,159.27 11.75,73.98 83.89,78.89 136.1,31.47 47.03,-42.68 97.54,-132.64 59.05,-193.95 -37.92,-60.47 -116.84,-52.89 -157.33,3.21z"/>
  <path class="fil12" d="M10544.31 5792.89c0,0 171.49,2028.16 349.43,3171.19 143.72,923.22 257.03,3081.23 257.03,3081.23l402.98 0c0,0 143.3,-2093.52 70.34,-3006.65 -184.57,-2310.63 227.09,-2498.83 -196.6,-3245.77l-883.18 0z"/>
  <path class="fil22" d="M10801.52 8296.06c-4.69,-37.5 -9.38,-75.28 -14,-113.31l0 -0.04c4.65,38.07 9.31,75.82 14,113.35z"/>
  <path class="fil25" d="M10832.85 8538.52c-10.55,-79.02 -21.03,-160.05 -31.33,-242.46 -4.69,-37.53 -9.35,-75.28 -14,-113.35 118.04,-344.17 221.4,-623.6 303.24,-878.31 -21.69,492.83 -133.73,920.61 -257.91,1234.12z"/>
  <path class="fil12" d="M10262.27 5780.08c0,0 -372.04,2215.06 -430.82,3213.49 146.12,923.26 743.76,2874.64 743.76,2874.64l366.54 -132.74c0,0 -202.78,-2127.96 -424.5,-2710.54 496.36,-1671.17 861.17,-2093.55 755.02,-3232.04 -253.16,0 -1010,-12.81 -1010,-12.81z"/>
  <polygon class="fil16" points="10526.04,11965.72 11021.34,11831.23 10993.29,11633.83 10462.96,11777.23 "/>
  <polygon class="fil16" points="11095.63,12053.28 11608.89,12053.28 11635.84,11873.22 11092.7,11854.84 "/>
  <path class="fil12" d="M11445.48 5722.48l54.12 107.42c4.2,8.32 -5.68,16.82 -19.55,16.82l-1258.6 0c-10.83,0 -19.79,-5.29 -20.46,-12.1l-10.83 -107.42c-0.74,-7.44 8.61,-13.75 20.46,-13.75l1215.32 0c8.92,0 16.83,3.66 19.54,9.03z"/>
  <path class="fil26" d="M10796.27 5846.72l-574.82 0c-10.83,0 -19.79,-5.29 -20.46,-12.1l-10.83 -107.42c-0.04,-0.31 -0.04,-0.6 -0.04,-0.88 0,-7.05 9.14,-12.87 20.5,-12.87l511 0c17.85,49.95 42.3,95 74.65,133.27zm700.12 -5.11c1.3,-1.84 2.61,-3.7 3.88,-5.57 -0.57,2.04 -1.94,3.95 -3.88,5.57z"/>
  <path class="fil12" d="M11282.25 5858.37l32.53 0c6.49,0 11.43,-3.36 11,-7.45l-15.27 -139.56c-0.46,-4.09 -6.1,-7.4 -12.59,-7.4l-32.57 0c-6.49,0 -11.43,3.31 -10.97,7.4l15.28 139.56c0.42,4.09 6.1,7.45 12.59,7.45z"/>
  <path class="fil12" d="M10845.34 4830.3c-7.94,0 -14.96,-5.33 -17.01,-13.02 -115.11,-425.23 -354.33,-774.98 -468.42,-828.92 -12.8,-6.03 -23.38,-7.76 -29.73,-4.9 -8.97,4.02 -19.37,0 -23.36,-8.86 -3.99,-8.85 -0.03,-19.33 8.86,-23.32 16.44,-7.44 36.37,-5.64 59.3,5.19 121.78,57.57 363.08,403.3 483.8,838.48 86.5,-1.09 219.95,-11.89 252.16,-14.6 40.33,-47.87 336.13,-417.66 225.46,-822.12 -2.57,-9.38 2.97,-19.12 12.35,-21.66 9.31,-2.57 19.09,2.93 21.7,12.35 123.19,450.22 -234.07,856.12 -237.71,860.18 -2.99,3.35 -7.12,5.4 -11.6,5.78 -1.77,0.18 -177.7,15.42 -275.8,15.42z"/>
  <path class="fil12" d="M11429.71 5079.68c-192.3,-360.47 -270.93,-385.66 -305.33,-501.54 0,0 30.98,-87.49 109.65,-176.08 -23.6,-6.56 -73.52,-16.54 -104.85,-22.57 3.56,-15.81 7.2,-31.4 10.76,-46.36 -25.96,-7.2 -79.94,0.25 -107.53,4.87l-1.23 -35.6c0,0 -97.51,-19.54 -136.7,-8.67 3.91,16.4 7.87,33.47 11.82,50.8 -34.36,6.63 -89.12,17.56 -114.97,24.76 74.89,84.35 101.91,174.41 107.73,196.64 -103.54,177.98 -506.55,1323.27 148.74,1409.38 655.7,86.19 574.18,-535.13 381.91,-895.63z"/>
  <path class="fil27" d="M11164.25 5983.43c-35.95,0 -74.72,-2.61 -116.45,-8.12 -279.33,-36.69 -366.36,-265.85 -366.26,-530.54 0.14,-356.2 158.12,-776.71 217.52,-878.84l0 0c-5.82,-22.23 -32.84,-112.29 -107.73,-196.64 25.85,-7.2 80.61,-18.13 114.97,-24.76l0 0c-3.95,-17.33 -7.91,-34.4 -11.82,-50.8 8.54,-2.37 19.82,-3.28 32.28,-3.28 44.73,0 104.42,11.95 104.42,11.95l1.23 35.6c19.34,-3.25 51.58,-7.87 78.11,-7.87 11.32,0 21.62,0.85 29.42,3 -3.56,14.96 -7.2,30.55 -10.76,46.36l0 0c31.33,6.03 81.25,16.01 104.85,22.57 -78.67,88.59 -109.65,176.08 -109.65,176.08l0 0c34.4,115.88 113.03,141.07 305.33,501.54 77.86,146.05 137.59,334.86 137.48,502.11 -0.11,219.36 -103.12,401.64 -402.94,401.64z"/>
  <path class="fil12" d="M10874.62 4531.85c-4.84,8.75 -4.41,41.91 -5.12,55.14 -0.74,13.23 34.54,22.05 74.23,25.72 39.68,3.67 203.58,10.26 198.43,-8.08 -5.15,-18.38 8.08,-43.39 8.82,-58.81 0.74,-15.45 -65.4,-16.16 -120.54,-13.97 -55.1,2.22 -144.78,-19.82 -155.82,0z"/>
  <path class="fil12" d="M10493.3 5858.37l32.56 0c6.46,0 11.4,-3.36 10.97,-7.45l-15.27 -139.56c-0.46,-4.09 -6.11,-7.4 -12.6,-7.4l-32.56 0c-6.45,0 -11.39,3.31 -10.97,7.4l15.28 139.56c0.45,4.09 6.1,7.45 12.59,7.45z"/>
 </g>
</svg>
